<svg xmlns="http://www.w3.org/2000/svg" viewBox="0 0 1713 400" fill="none">
<g transform="translate(0,2)"><path d="M346.115 41.4635C329.578 13.5677 299.557 -1.44271 263.677 0.265627H263.672C226.599 2.03646 197.281 34.0521 179.511 59.9115C161.74 34.0521 132.417 2.03646 95.3438 0.265627C59.4741 -1.48958 29.4428 13.5677 12.9063 41.4635C-6.98428 75.026 -2.96866 121.057 23.6459 164.609C53.8543 214.036 107.037 258.969 139.813 283.875C141.833 275.391 142.672 266.745 142.386 258.172C106.193 228.943 59.3438 186.073 31.9272 141.203C9.28655 104.161 4.5053 67.3073 19.1407 42.6146C29.0678 25.8646 46.9793 16.7865 69.8751 16.7865C71.2866 16.7865 72.7136 16.8177 74.1668 16.8854C109.984 18.6042 146.693 79.0833 156.714 100.104L178 145.036C178.5 145.016 179.005 145 179.511 145C180.016 145 180.521 145.016 181.026 145.036L202.302 100.104C214.833 73.6406 251.5 18.4896 284.859 16.8854C309.787 15.7135 329.344 24.8281 339.88 42.6146C354.516 67.3073 349.859 104.234 327.099 141.203C275.667 224.745 126.594 336.708 80.4168 372.318L96.073 373.792L83.3595 396.677C107.177 380.057 275.667 260.016 335.37 164.609C362.453 121.349 366 75.026 346.115 41.4635Z" fill="#16B5C3"></path><path d="M124.812 389.438C123.562 396.083 132.458 399.51 135.995 393.74L168.906 332.292C155.713 342.859 143.219 352.552 132.005 361.068L124.812 389.438ZM210.896 297.469C201.724 305.359 192.609 312.995 183.693 320.302L223.031 393.74C226.562 399.51 235.458 396.083 234.208 389.438L210.896 297.469ZM179.51 196.745C190.656 196.745 199.693 187.708 199.693 176.557C199.693 165.417 190.656 156.38 179.51 156.38C168.364 156.38 159.328 165.417 159.328 176.557C159.328 187.708 168.364 196.745 179.51 196.745ZM265.182 129.922L210.604 185.182C205.104 190.75 199.172 195.802 192.87 200.307C184.901 206 174.12 206 166.151 200.307C159.854 195.802 153.917 190.75 148.422 185.182L93.8384 129.922C88.7864 124.807 80.5937 131.141 84.2759 137.318L129.297 192.417C151.12 219.13 158.995 254.604 150.516 288.042L144.187 313C163.552 297.333 184.484 279.854 205.177 261.505C205.125 236.599 213.625 212.125 229.724 192.417L274.739 137.318C278.427 131.141 270.234 124.807 265.182 129.922Z" fill="#7A2A8F"></path></g>
<g fill="#7A2A8F" transform="translate(430,188) scale(0.06600,-0.06600)"><path transform="translate(0,0)" d="M768 -26Q626 -26 501.0 30.5Q376 87 281.5 186.92498779296875Q187 286.8499755859375 133.5 418.42498779296875Q80 550 80 700Q80 850.8499755859375 133.5 982.4249877929688Q187 1114 281.5 1213.5Q376 1313 501.0 1369.5Q626 1426 768 1426Q938 1426 1081.0 1347.4249877929688Q1224 1268.8499755859375 1318 1137.8499755859375L1071.603515625 1005.40185546875Q1016.302978515625 1071.2528076171875 937.2269897460938 1110.6283569335938Q858.1510009765625 1150.00390625 768 1150.00390625Q682.7491455078125 1150.00390625 607.8984375 1114.9785766601562Q533.0477294921875 1079.9532470703125 476.32220458984375 1018.0776977539062Q419.5966796875 956.2021484375 387.79638671875 874.8514404296875Q355.99609375 793.500732421875 355.99609375 700Q355.99609375 607.0491943359375 387.87139892578125 525.698486328125Q419.7467041015625 444.3477783203125 476.5472412109375 382.47222900390625Q533.3477783203125 320.5966796875 608.198486328125 285.29638671875Q683.0491943359375 249.99609375 768 249.99609375Q858.901123046875 249.99609375 937.6770629882812 289.9466552734375Q1016.4530029296875 329.897216796875 1071.603515625 396.1480712890625L1318 262Q1224 131.8499755859375 1081.0 52.92498779296875Q938 -26 768 -26Z"></path><path transform="translate(1418,0)" d="M588.1500244140625 1400H901.5460205078125L1409.8460693359375 0H1117.2001953125L1032.8494873046875 232.001953125H456.99658203125L372.6458740234375 0H80ZM558.1451416015625 507.998046875H931.5509033203125L743.998046875 1020.60595703125Z"></path><path transform="translate(2908,0)" d="M120 0V1400H675.7476806640625Q790.297607421875 1400 882.8475341796875 1342.5250854492188Q975.3974609375 1285.0501708984375 1029.6724243164062 1188.30029296875Q1083.9473876953125 1091.5504150390625 1083.9473876953125 974.8504638671875Q1083.9473876953125 882.900146484375 1052.1470947265625 804.4249877929688Q1020.3468017578125 725.9498291015625 962.29638671875 667.1249389648438Q904.2459716796875 608.300048828125 826.8455810546875 575.00048828125L1160.3458251953125 0H841.9503173828125L522.7998046875 549.5509033203125H395.99609375V0ZM395.99609375 825.5469970703125H643.3482666015625Q688.4490966796875 825.5469970703125 725.7247924804688 848.4473876953125Q763.00048828125 871.3477783203125 785.4758911132812 909.6234741210938Q807.9512939453125 947.899169921875 807.9512939453125 994.60009765625Q807.9512939453125 1041.301025390625 785.4758911132812 1079.5767211914062Q763.00048828125 1117.8524169921875 725.7247924804688 1140.7528076171875Q688.4490966796875 1163.6531982421875 643.3482666015625 1163.6531982421875H395.99609375Z"></path><path transform="translate(4151,0)" d="M120 0V1400H1005.9990234375V1124.00390625H395.99609375V887.998046875H871.9493408203125V612.001953125H395.99609375V275.99609375H1005.9990234375V0Z"></path><path transform="translate(5737,0)" d="M120 0V1400H641.4486083984375Q754.498291015625 1400 846.0730590820312 1353.400146484375Q937.6478271484375 1306.80029296875 991.397705078125 1220.9254760742188Q1045.1475830078125 1135.0506591796875 1045.1475830078125 1018.6507568359375Q1045.1475830078125 971.6502685546875 1032.3472900390625 921.7250366210938Q1019.5469970703125 871.7998046875 990.19677734375 830.0248413085938Q960.8465576171875 788.2498779296875 910.19677734375 766.0501708984375Q976.4466552734375 750.0501708984375 1016.3468017578125 706.7252807617188Q1056.2469482421875 663.400390625 1077.1721801757812 606.50048828125Q1098.097412109375 549.6005859375 1105.2225952148438 491.02557373046875Q1112.3477783203125 432.4505615234375 1112.3477783203125 383.9503173828125Q1112.3477783203125 276.1500244140625 1056.1729125976562 189.27496337890625Q999.998046875 102.39990234375 905.498291015625 51.199951171875Q810.99853515625 0 696.6488037109375 0ZM395.99609375 234.6468505859375H667.79931640625Q722.9498291015625 234.6468505859375 768.000244140625 261.17218017578125Q813.0506591796875 287.697509765625 840.0509033203125 334.1480712890625Q867.0511474609375 380.5986328125 867.0511474609375 439.79931640625Q867.0511474609375 490 840.0509033203125 535.1005859375Q813.0506591796875 580.201171875 768.000244140625 608.3765258789062Q722.9498291015625 636.5518798828125 667.79931640625 636.5518798828125H395.99609375ZM395.99609375 867.498779296875H609.0491943359375Q674.900146484375 867.498779296875 722.0258178710938 910.1242065429688Q769.1514892578125 952.7496337890625 769.1514892578125 1020.500732421875Q769.1514892578125 1090.60205078125 722.0258178710938 1127.1276245117188Q674.900146484375 1163.6531982421875 609.0491943359375 1163.6531982421875H395.99609375Z"></path><path transform="translate(6929,0)" d="M120 0V1400H675.7476806640625Q790.297607421875 1400 882.8475341796875 1342.5250854492188Q975.3974609375 1285.0501708984375 1029.6724243164062 1188.30029296875Q1083.9473876953125 1091.5504150390625 1083.9473876953125 974.8504638671875Q1083.9473876953125 882.900146484375 1052.1470947265625 804.4249877929688Q1020.3468017578125 725.9498291015625 962.29638671875 667.1249389648438Q904.2459716796875 608.300048828125 826.8455810546875 575.00048828125L1160.3458251953125 0H841.9503173828125L522.7998046875 549.5509033203125H395.99609375V0ZM395.99609375 825.5469970703125H643.3482666015625Q688.4490966796875 825.5469970703125 725.7247924804688 848.4473876953125Q763.00048828125 871.3477783203125 785.4758911132812 909.6234741210938Q807.9512939453125 947.899169921875 807.9512939453125 994.60009765625Q807.9512939453125 1041.301025390625 785.4758911132812 1079.5767211914062Q763.00048828125 1117.8524169921875 725.7247924804688 1140.7528076171875Q688.4490966796875 1163.6531982421875 643.3482666015625 1163.6531982421875H395.99609375Z"></path><path transform="translate(8172,0)" d="M150 0V1400H425.99609375V0Z"></path><path transform="translate(8748,0)" d="M120 0V1400H583.8499755859375Q728.8499755859375 1400 855.4249877929688 1345.5Q982 1291 1078.4249877929688 1194.5Q1174.8499755859375 1098 1229.3499755859375 971.5Q1283.8499755859375 845 1283.8499755859375 700Q1283.8499755859375 555 1229.3499755859375 428.5Q1174.8499755859375 302 1078.4249877929688 205.5Q982 109 855.4249877929688 54.5Q728.8499755859375 0 583.8499755859375 0ZM395.99609375 275.99609375H583.8499755859375Q670.100830078125 275.99609375 746.5265502929688 308.87139892578125Q822.9522705078125 341.7467041015625 882.102783203125 400.0472412109375Q941.2532958984375 458.3477783203125 974.5535888671875 535.198486328125Q1007.8538818359375 612.0491943359375 1007.8538818359375 700Q1007.8538818359375 787.9508056640625 974.5535888671875 864.3765258789062Q941.2532958984375 940.80224609375 882.4527587890625 999.5277709960938Q823.6522216796875 1058.2532958984375 747.301513671875 1091.1286010742188Q670.9508056640625 1124.00390625 583.8499755859375 1124.00390625H395.99609375Z"></path><path transform="translate(10092,0)" d="M768.1500244140625 -26Q621.60009765625 -26 496.10009765625 30.92498779296875Q370.60009765625 87.8499755859375 277.4500732421875 188.3499755859375Q184.300048828125 288.8499755859375 132.1500244140625 420.77496337890625Q80 552.699951171875 80 701.8499755859375Q80 861.6497802734375 137.12493896484375 993.6497802734375Q194.2498779296875 1125.6497802734375 292.37481689453125 1222.4498291015625Q390.499755859375 1319.2498779296875 514.999755859375 1371.699951171875Q639.499755859375 1424.1500244140625 773.5499267578125 1424.1500244140625Q921.80029296875 1424.1500244140625 1064.0253295898438 1355.099853515625Q1206.2503662109375 1286.0496826171875 1318.1500244140625 1136.1500244140625L1071.603515625 1003.5518798828125Q1007.7530517578125 1077.9527587890625 929.2520751953125 1113.9783325195312Q850.7510986328125 1150.00390625 770 1150.00390625Q689.299072265625 1150.00390625 614.8733520507812 1116.8285522460938Q540.4476318359375 1083.6531982421875 482.297119140625 1023.0526123046875Q424.1466064453125 962.4520263671875 390.07135009765625 879.4013671875Q355.99609375 796.3507080078125 355.99609375 696.4500732421875Q355.99609375 603.499267578125 388.37139892578125 522.1485595703125Q420.7467041015625 440.7978515625 477.97222900390625 379.8472900390625Q535.19775390625 318.896728515625 610.5484619140625 284.4464111328125Q685.899169921875 249.99609375 771.8499755859375 249.99609375Q825.0511474609375 249.99609375 876.402099609375 265.49658203125Q927.7530517578125 280.9970703125 974.8037109375 311.097900390625Q1021.8543701171875 341.19873046875 1061.4296264648438 386.19970703125Q1101.0048828125 431.20068359375 1130.6546630859375 490.20166015625H914.1500244140625V730.2484130859375H1456Q1462.3497314453125 575.0487060546875 1411.1746215820312 438.27398681640625Q1359.99951171875 301.499267578125 1265.0745239257812 196.92449951171875Q1170.1495361328125 92.3497314453125 1042.9746704101562 33.17486572265625Q915.7998046875 -26 768.1500244140625 -26Z"></path><path transform="translate(11629,0)" d="M120 0V1400H1005.9990234375V1124.00390625H395.99609375V887.998046875H871.9493408203125V612.001953125H395.99609375V275.99609375H1005.9990234375V0Z"></path><path transform="translate(13215,0)" d="M927.8519287109375 1400H1203.8480224609375V0H927.8519287109375V612.001953125H395.99609375V0H120V1400H395.99609375V887.998046875H927.8519287109375Z"></path><path transform="translate(14539,0)" d="M770 -26Q628 -26 503.0 30.5Q378 87 283.0 187.0Q188 287 134.0 418.5Q80 550 80 700Q80 850 134.0 981.5Q188 1113 283.0 1213.0Q378 1313 503.0 1369.5Q628 1426 770 1426Q913 1426 1038.0 1369.5Q1163 1313 1258.0 1213.0Q1353 1113 1406.5 981.5Q1460 850 1460 700Q1460 550 1406.5 418.5Q1353 287 1258.0 187.0Q1163 87 1038.0 30.5Q913 -26 770 -26ZM770 249.99609375Q855.2508544921875 249.99609375 930.1015625 285.4464111328125Q1004.9522705078125 320.896728515625 1062.1777954101562 382.77227783203125Q1119.4033203125 444.6478271484375 1151.70361328125 525.99853515625Q1184.00390625 607.3492431640625 1184.00390625 700Q1184.00390625 792.80078125 1151.6286010742188 874.2265014648438Q1119.2532958984375 955.6522216796875 1062.0277709960938 1017.4527587890625Q1004.80224609375 1079.2532958984375 929.9515380859375 1114.6286010742188Q855.100830078125 1150.00390625 770 1150.00390625Q684.7491455078125 1150.00390625 609.8984375 1114.5535888671875Q535.0477294921875 1079.103271484375 477.82220458984375 1017.2277221679688Q420.5966796875 955.3521728515625 388.29638671875 874.00146484375Q355.99609375 792.6507568359375 355.99609375 700Q355.99609375 607.0491943359375 388.37139892578125 525.698486328125Q420.7467041015625 444.3477783203125 477.97222900390625 382.47222900390625Q535.19775390625 320.5966796875 610.0484619140625 285.29638671875Q684.899169921875 249.99609375 770 249.99609375Z"></path><path transform="translate(16079,0)" d="M120 0 391.8499755859375 1400H624.7462158203125L950.4481201171875 543.39501953125L1275.8499755859375 1400H1508.7462158203125L1780.7462158203125 0H1499.2001953125L1344.0487060546875 803.2576904296875L1045.4466552734375 13.80224609375H855.1495361328125L556.5474853515625 803.2576904296875L401.39599609375 0Z"></path><path transform="translate(17980,0)" d="M120 0V1400H1005.9990234375V1124.00390625H395.99609375V887.998046875H871.9493408203125V612.001953125H395.99609375V275.99609375H1005.9990234375V0Z"></path></g>
<g fill="#16B5C3" transform="translate(436,288) scale(0.03300,-0.03300)"><path transform="translate(0,0)" d="M588.1500244140625 1400H901.5460205078125L1409.8460693359375 0H1117.2001953125L1032.8494873046875 232.001953125H456.99658203125L372.6458740234375 0H80ZM558.1451416015625 507.998046875H931.5509033203125L743.998046875 1020.60595703125Z"></path><path transform="translate(1630,0)" d="M768.1500244140625 -26Q621.60009765625 -26 496.10009765625 30.92498779296875Q370.60009765625 87.8499755859375 277.4500732421875 188.3499755859375Q184.300048828125 288.8499755859375 132.1500244140625 420.77496337890625Q80 552.699951171875 80 701.8499755859375Q80 861.6497802734375 137.12493896484375 993.6497802734375Q194.2498779296875 1125.6497802734375 292.37481689453125 1222.4498291015625Q390.499755859375 1319.2498779296875 514.999755859375 1371.699951171875Q639.499755859375 1424.1500244140625 773.5499267578125 1424.1500244140625Q921.80029296875 1424.1500244140625 1064.0253295898438 1355.099853515625Q1206.2503662109375 1286.0496826171875 1318.1500244140625 1136.1500244140625L1071.603515625 1003.5518798828125Q1007.7530517578125 1077.9527587890625 929.2520751953125 1113.9783325195312Q850.7510986328125 1150.00390625 770 1150.00390625Q689.299072265625 1150.00390625 614.8733520507812 1116.8285522460938Q540.4476318359375 1083.6531982421875 482.297119140625 1023.0526123046875Q424.1466064453125 962.4520263671875 390.07135009765625 879.4013671875Q355.99609375 796.3507080078125 355.99609375 696.4500732421875Q355.99609375 603.499267578125 388.37139892578125 522.1485595703125Q420.7467041015625 440.7978515625 477.97222900390625 379.8472900390625Q535.19775390625 318.896728515625 610.5484619140625 284.4464111328125Q685.899169921875 249.99609375 771.8499755859375 249.99609375Q825.0511474609375 249.99609375 876.402099609375 265.49658203125Q927.7530517578125 280.9970703125 974.8037109375 311.097900390625Q1021.8543701171875 341.19873046875 1061.4296264648438 386.19970703125Q1101.0048828125 431.20068359375 1130.6546630859375 490.20166015625H914.1500244140625V730.2484130859375H1456Q1462.3497314453125 575.0487060546875 1411.1746215820312 438.27398681640625Q1359.99951171875 301.499267578125 1265.0745239257812 196.92449951171875Q1170.1495361328125 92.3497314453125 1042.9746704101562 33.17486572265625Q915.7998046875 -26 768.1500244140625 -26Z"></path><path transform="translate(3307,0)" d="M150 0V1400H425.99609375V0Z"></path><path transform="translate(4023,0)" d="M120 0V1400H418.19580078125L964.2513427734375 498.6429443359375V1400H1240.2474365234375V0H942.20166015625L395.99609375 901.3570556640625V0Z"></path><path transform="translate(5523,0)" d="M768.1500244140625 -26Q621.60009765625 -26 496.10009765625 30.92498779296875Q370.60009765625 87.8499755859375 277.4500732421875 188.3499755859375Q184.300048828125 288.8499755859375 132.1500244140625 420.77496337890625Q80 552.699951171875 80 701.8499755859375Q80 861.6497802734375 137.12493896484375 993.6497802734375Q194.2498779296875 1125.6497802734375 292.37481689453125 1222.4498291015625Q390.499755859375 1319.2498779296875 514.999755859375 1371.699951171875Q639.499755859375 1424.1500244140625 773.5499267578125 1424.1500244140625Q921.80029296875 1424.1500244140625 1064.0253295898438 1355.099853515625Q1206.2503662109375 1286.0496826171875 1318.1500244140625 1136.1500244140625L1071.603515625 1003.5518798828125Q1007.7530517578125 1077.9527587890625 929.2520751953125 1113.9783325195312Q850.7510986328125 1150.00390625 770 1150.00390625Q689.299072265625 1150.00390625 614.8733520507812 1116.8285522460938Q540.4476318359375 1083.6531982421875 482.297119140625 1023.0526123046875Q424.1466064453125 962.4520263671875 390.07135009765625 879.4013671875Q355.99609375 796.3507080078125 355.99609375 696.4500732421875Q355.99609375 603.499267578125 388.37139892578125 522.1485595703125Q420.7467041015625 440.7978515625 477.97222900390625 379.8472900390625Q535.19775390625 318.896728515625 610.5484619140625 284.4464111328125Q685.899169921875 249.99609375 771.8499755859375 249.99609375Q825.0511474609375 249.99609375 876.402099609375 265.49658203125Q927.7530517578125 280.9970703125 974.8037109375 311.097900390625Q1021.8543701171875 341.19873046875 1061.4296264648438 386.19970703125Q1101.0048828125 431.20068359375 1130.6546630859375 490.20166015625H914.1500244140625V730.2484130859375H1456Q1462.3497314453125 575.0487060546875 1411.1746215820312 438.27398681640625Q1359.99951171875 301.499267578125 1265.0745239257812 196.92449951171875Q1170.1495361328125 92.3497314453125 1042.9746704101562 33.17486572265625Q915.7998046875 -26 768.1500244140625 -26Z"></path><path transform="translate(7820,0)" d="M450.0487060546875 0 92.0487060546875 1400H377.1446533203125L605.1466064453125 505.3424072265625L832.99853515625 1400H1086.19482421875L1314.19677734375 505.3424072265625L1542.0487060546875 1400H1827.1446533203125L1471.1446533203125 0H1158.9488525390625L959.5966796875 778.3585205078125L761.9444580078125 0Z"></path><path transform="translate(9879,0)" d="M150 0V1400H425.99609375V0Z"></path><path transform="translate(10595,0)" d="M1179.8499755859375 1400V1124.00390625H767.8480224609375V0H491.8519287109375V1124.00390625H80V1400Z"></path><path transform="translate(11995,0)" d="M927.8519287109375 1400H1203.8480224609375V0H927.8519287109375V612.001953125H395.99609375V0H120V1400H395.99609375V887.998046875H927.8519287109375Z"></path><path transform="translate(14079,0)" d="M768.1500244140625 -26Q621.60009765625 -26 496.10009765625 30.92498779296875Q370.60009765625 87.8499755859375 277.4500732421875 188.3499755859375Q184.300048828125 288.8499755859375 132.1500244140625 420.77496337890625Q80 552.699951171875 80 701.8499755859375Q80 861.6497802734375 137.12493896484375 993.6497802734375Q194.2498779296875 1125.6497802734375 292.37481689453125 1222.4498291015625Q390.499755859375 1319.2498779296875 514.999755859375 1371.699951171875Q639.499755859375 1424.1500244140625 773.5499267578125 1424.1500244140625Q921.80029296875 1424.1500244140625 1064.0253295898438 1355.099853515625Q1206.2503662109375 1286.0496826171875 1318.1500244140625 1136.1500244140625L1071.603515625 1003.5518798828125Q1007.7530517578125 1077.9527587890625 929.2520751953125 1113.9783325195312Q850.7510986328125 1150.00390625 770 1150.00390625Q689.299072265625 1150.00390625 614.8733520507812 1116.8285522460938Q540.4476318359375 1083.6531982421875 482.297119140625 1023.0526123046875Q424.1466064453125 962.4520263671875 390.07135009765625 879.4013671875Q355.99609375 796.3507080078125 355.99609375 696.4500732421875Q355.99609375 603.499267578125 388.37139892578125 522.1485595703125Q420.7467041015625 440.7978515625 477.97222900390625 379.8472900390625Q535.19775390625 318.896728515625 610.5484619140625 284.4464111328125Q685.899169921875 249.99609375 771.8499755859375 249.99609375Q825.0511474609375 249.99609375 876.402099609375 265.49658203125Q927.7530517578125 280.9970703125 974.8037109375 311.097900390625Q1021.8543701171875 341.19873046875 1061.4296264648438 386.19970703125Q1101.0048828125 431.20068359375 1130.6546630859375 490.20166015625H914.1500244140625V730.2484130859375H1456Q1462.3497314453125 575.0487060546875 1411.1746215820312 438.27398681640625Q1359.99951171875 301.499267578125 1265.0745239257812 196.92449951171875Q1170.1495361328125 92.3497314453125 1042.9746704101562 33.17486572265625Q915.7998046875 -26 768.1500244140625 -26Z"></path><path transform="translate(15756,0)" d="M120 0V1400H675.7476806640625Q790.297607421875 1400 882.8475341796875 1342.5250854492188Q975.3974609375 1285.0501708984375 1029.6724243164062 1188.30029296875Q1083.9473876953125 1091.5504150390625 1083.9473876953125 974.8504638671875Q1083.9473876953125 882.900146484375 1052.1470947265625 804.4249877929688Q1020.3468017578125 725.9498291015625 962.29638671875 667.1249389648438Q904.2459716796875 608.300048828125 826.8455810546875 575.00048828125L1160.3458251953125 0H841.9503173828125L522.7998046875 549.5509033203125H395.99609375V0ZM395.99609375 825.5469970703125H643.3482666015625Q688.4490966796875 825.5469970703125 725.7247924804688 848.4473876953125Q763.00048828125 871.3477783203125 785.4758911132812 909.6234741210938Q807.9512939453125 947.899169921875 807.9512939453125 994.60009765625Q807.9512939453125 1041.301025390625 785.4758911132812 1079.5767211914062Q763.00048828125 1117.8524169921875 725.7247924804688 1140.7528076171875Q688.4490966796875 1163.6531982421875 643.3482666015625 1163.6531982421875H395.99609375Z"></path><path transform="translate(17139,0)" d="M588.1500244140625 1400H901.5460205078125L1409.8460693359375 0H1117.2001953125L1032.8494873046875 232.001953125H456.99658203125L372.6458740234375 0H80ZM558.1451416015625 507.998046875H931.5509033203125L743.998046875 1020.60595703125Z"></path><path transform="translate(18769,0)" d="M768 -26Q626 -26 501.0 30.5Q376 87 281.5 186.92498779296875Q187 286.8499755859375 133.5 418.42498779296875Q80 550 80 700Q80 850.8499755859375 133.5 982.4249877929688Q187 1114 281.5 1213.5Q376 1313 501.0 1369.5Q626 1426 768 1426Q938 1426 1081.0 1347.4249877929688Q1224 1268.8499755859375 1318 1137.8499755859375L1071.603515625 1005.40185546875Q1016.302978515625 1071.2528076171875 937.2269897460938 1110.6283569335938Q858.1510009765625 1150.00390625 768 1150.00390625Q682.7491455078125 1150.00390625 607.8984375 1114.9785766601562Q533.0477294921875 1079.9532470703125 476.32220458984375 1018.0776977539062Q419.5966796875 956.2021484375 387.79638671875 874.8514404296875Q355.99609375 793.500732421875 355.99609375 700Q355.99609375 607.0491943359375 387.87139892578125 525.698486328125Q419.7467041015625 444.3477783203125 476.5472412109375 382.47222900390625Q533.3477783203125 320.5966796875 608.198486328125 285.29638671875Q683.0491943359375 249.99609375 768 249.99609375Q858.901123046875 249.99609375 937.6770629882812 289.9466552734375Q1016.4530029296875 329.897216796875 1071.603515625 396.1480712890625L1318 262Q1224 131.8499755859375 1081.0 52.92498779296875Q938 -26 768 -26Z"></path><path transform="translate(20327,0)" d="M120 0V1400H1005.9990234375V1124.00390625H395.99609375V887.998046875H871.9493408203125V612.001953125H395.99609375V275.99609375H1005.9990234375V0Z"></path></g>
</svg>